# xmcd
#
# Track frame offsets:
#	150
#	16432
#	34440
#	51062
#	70392
#	95192
#	110379
#	130685
#	148175
#	168795
#	188175
#	205722
#	223237
#	241620
#	259730
#	276592
#	292377
#	312247
#
# Disc length: 4390 seconds
# Revision: 0
# Processed by: cddbd v1.5.2PL0 Copyright (c) Steve Scherf et al.
# Submitted via: dBpowerAMP V12.0
#
DISCID=20112412
DTITLE=Phil Fearon and Galaxy - Dancing Tight
DYEAR=2001
DGENRE=R&B
TTITLE0=Dancing Tight
TTITLE1=I Can Prove It
TTITLE2=Everybody's Laughing
TTITLE3=This Kind Of Love
TTITLE4=Do You Want More
TTITLE5=Ain't Nothing But A House Party
TTITLE6=Before You Throw Love Away
TTITLE7=Nothing Is Too Good For You
TTITLE8=All I Give To You
TTITLE9=Still Thinking Of You
TTITLE10=Anything You Want
TTITLE11=Head Over Heels
TTITLE12=You Don't Need A Reason
TTITLE13=Fantasy Real
TTITLE14=Wait Until Tonight (My Love)
TTITLE15=What Do I Do
TTITLE16=Dancing Tight
TTITLE17=What Do I Do?
EXTD=
EXTT0=
EXTT1=
EXTT2=
EXTT3=
EXTT4=
EXTT5=
EXTT6=
EXTT7=
EXTT8=
EXTT9=
EXTT10=
EXTT11=
EXTT12=
EXTT13=
EXTT14=
EXTT15=
EXTT16=
EXTT17=
PLAYORDER=
